<svg xmlns="http://www.w3.org/2000/svg" xmlns:xlink="http://www.w3.org/1999/xlink" viewBox="0 0 91 81" fill="#fff" fill-rule="evenodd" stroke="#000" stroke-linecap="round" stroke-linejoin="round"><use xlink:href="#A" x=".5" y=".5"/><symbol id="A" overflow="visible"><g fill="#0072c6" stroke="none"><path d="M32 26.667v22.564l14-6.154V18.462l-14 8.205zm12-2.478v2.051 13.615l-3 1.393v-13.34l-4 2.222v13.022l-3 1.245V31.795v-2.051l7-3.889v-.018l3-1.647h0z"/><path d="M46 18.462v24.615l44 9.744V34.872l-44-16.41zm40 20.513v10.256l-2.91-.823V37.742L78 36.103V47.18l-2.91-.823V34.87L70 33.231v11.897l-2.91-.823V31.998L62 30.359v12.718l-2.91-.823V29.127l-5.598-1.832.01 13.614L50 40.001V26.052v-2.051l8 2.872h0l4 1.436 4 1.436 2 .718 7.714 2.769 2.286.82 4 1.436 4 1.436v2.051zM46 47.18v32.821l44-10.256V55.898L46 47.18zm40 20.326l-2.908.501v-8.905L78 58.415v10.771l-2.908.5V58.031L70 57.34v13.522l-2.908.501V56.954L62 56.267v16.275l-2.908.5V55.884l-5.592-.663-.01 19.218-3.49.62v-22.71l36 5.6v9.557zM28 24.285l17.626-10.33 34.248 12.774C78.892 16.353 70.37 8.205 60 8.205a19.29 19.29 0 0 0-7.038 1.325C48.426 3.532 41.456 0 34 0 20.766 0 10 11.042 10 24.615a16.59 16.59 0 0 0 .014.708C3.804 28.985 0 35.668 0 43.077 0 54.388 8.972 63.59 20 63.59h8V24.285z"/><path d="M32 52.821v18.974l14 8.205V47.18l-14 5.641zm12 2.213v19.838l-3-1.538V56.048l-4 1.35v13.879l-3-1.532V58.411v-2.051l7-2.363 3-1.013v2.051z"/></g></symbol></svg>